<?xml version="1.0" encoding="utf-8"?>
<!-- Generator: Adobe Illustrator 27.9.0, SVG Export Plug-In . SVG Version: 6.00 Build 0)  -->
<svg version="1.1" id="a" xmlns="http://www.w3.org/2000/svg" xmlns:xlink="http://www.w3.org/1999/xlink" x="0px" y="0px"
	 width="200px" height="200px" viewBox="0 0 200 200" style="enable-background:new 0 0 200 200;" xml:space="preserve">
<style type="text/css">
	.st0{fill:url(#SVGID_1_);}
	.st1{fill:#F1962B;}
	.st2{fill:#FFFFFF;}
</style>
<g id="b">
	
		<radialGradient id="SVGID_1_" cx="100" cy="101.9" r="93.45" gradientTransform="matrix(1 0 0 -1 0 202)" gradientUnits="userSpaceOnUse">
		<stop  offset="0" style="stop-color:#E15921"/>
		<stop  offset="1" style="stop-color:#D64617"/>
	</radialGradient>
	<ellipse class="st0" cx="100" cy="100.1" rx="93.5" ry="93.4"/>
	<path class="st1" d="M100,12.1c48.5,0,88,39.4,88,87.9s-39.5,88-88,88s-88-39.4-88-87.9S51.5,12.1,100,12.1 M100,1.1
		C45.3,1.1,1,45.4,1,100s44.3,99,99,99s99-44.3,99-98.9S154.7,1.1,100,1.1L100,1.1z"/>
</g>
<path class="st2" d="M92.4,138.2H37.5c-1.6,0-2.9-1.3-2.9-2.9v-31c0-1.5,0.6-3,1.7-4l1.6-1.6c1.1-1.1,2.5-1.7,4-1.7h50.5
	c1.6,0,2.9,1.3,2.9,2.9v8.3l-1,9.4l1,6.6v11.1C95.3,136.9,94,138.2,92.4,138.2L92.4,138.2L92.4,138.2z M165.3,135.3V99.9
	c0-1.6-1.3-2.9-2.9-2.9h-35.6l-11.1,1l-8.3-1c-1.6,0-2.9,1.3-2.9,2.9v35.4c0,1.6,1.3,2.9,2.9,2.9h54.9
	C164,138.2,165.3,136.9,165.3,135.3L165.3,135.3z M134,86V55.7c0-1.6-1.3-2.9-2.9-2.9H70.2c-1.6,0-2.9,1.3-2.9,2.9v7l2,10.3l-2,2.9
	V86c0,1.6,1.3,2.9,2.9,2.9h60.9C132.8,88.9,134,87.6,134,86z"/>
</svg>