<?xml version="1.0" encoding="utf-8"?>
<!-- Generator: Adobe Illustrator 27.9.0, SVG Export Plug-In . SVG Version: 6.00 Build 0)  -->
<svg version="1.1" id="a" xmlns="http://www.w3.org/2000/svg" xmlns:xlink="http://www.w3.org/1999/xlink" x="0px" y="0px"
	 width="200px" height="200px" viewBox="0 0 200 200" style="enable-background:new 0 0 200 200;" xml:space="preserve">
<style type="text/css">
	.st0{fill:url(#SVGID_1_);}
	.st1{fill:#E8CF33;}
	.st2{fill:#FFFFFF;}
</style>
<g id="b">
	
		<radialGradient id="SVGID_1_" cx="100" cy="-488.1" r="93.45" gradientTransform="matrix(1 0 0 -1 0 -388)" gradientUnits="userSpaceOnUse">
		<stop  offset="0" style="stop-color:#D49509"/>
		<stop  offset="1" style="stop-color:#D99409"/>
	</radialGradient>
	<ellipse class="st0" cx="100" cy="100.1" rx="93.5" ry="93.4"/>
	<path class="st1" d="M100,12.1c48.5,0,88,39.4,88,87.9s-39.5,88-88,88s-88-39.4-88-87.9S51.5,12.1,100,12.1 M100,1.1
		C45.3,1.1,1,45.4,1,100s44.3,99,99,99s99-44.3,99-98.9S154.7,1.1,100,1.1L100,1.1z"/>
</g>
<path id="c" class="st2" d="M91.1,88.1c0,8.5-3.1,12.7-6.9,12.7s-6.9-4.1-6.9-12.7S81.6,70,84.2,70S91.1,79.6,91.1,88.1z
	 M106.1,53.1c-3.1-0.8-10.4,8.3-12.3,17.4s0.9,14.4,5.5,15.5s9.2-2.4,11.1-11.5C112.2,65.5,109.2,53.9,106.1,53.1L106.1,53.1z
	 M132,40.9c-2.7-1.7-12.5,4.7-17,12.8s-1.5,15.4,0.5,16.5c2.3,1.3,10.4,0.2,14.1-7.5C131.8,57.8,134.7,42.6,132,40.9L132,40.9z
	 M69.7,90.4c-2.4,0.2-5.7,8.7-5,15.8c0.7,7.1,3.8,10.3,7.3,10s6.1-4,5.4-11.2S72.1,90.2,69.7,90.4z M56.5,110.2
	c-2.2,1-3.3,8.1-1.1,12.9s5.9,5.9,9.1,4.4s4.7-5,2.5-9.8C64.8,112.8,58.7,109.1,56.5,110.2L56.5,110.2z M149.6,42.7
	c-1.6-1.3-8.4,1.7-12.8,7S131.5,60,133.9,62s7.3,0.1,11.6-5.2S151.2,44,149.6,42.7L149.6,42.7z M56.2,163
	c15.9-35,53.2-73.1,70.2-89.9c0.6-0.6-0.2-1.5-0.9-1c-18.3,13.6-66.3,52.4-74.6,90.6C53.1,163.4,54.9,163.5,56.2,163L56.2,163z
	 M130.9,102.7c-0.4-3.2-10.8-8.2-19.1-6.2c-5.1,1.2-11.2,3.9-11.5,10c-0.2,3.5,5.2,7.9,13.6,6.9
	C122.3,112.3,131.2,105.9,130.9,102.7L130.9,102.7z M141.8,83.8c-0.6-2.5-9.4-4.9-16.3-3.4s-9.6,5.3-8.7,9.1s4.9,6,11.8,4.4
	C135.5,92.3,142.4,86.3,141.8,83.8L141.8,83.8z M151.7,65.6c-0.9-2-8.9-2.2-14.5,0.5c-5.6,2.7-7.2,6.4-5.8,9.3s5.3,4,10.9,1.3
	S152.6,67.6,151.7,65.6z M106.1,119.1c-0.6-2.5-4.9-6-11.9-4.4s-9.4,5.5-9.9,9.3s4.9,6,11.8,4.4C103,126.8,106.6,121.6,106.1,119.1
	L106.1,119.1z M89.4,137.3c0.4-1.7-3.4-5.6-7.3-6.6s-6.3,0.7-6.9,3.2s0.8,5,4.7,6S89,139,89.4,137.3z"/>
</svg>
