<?xml version="1.0" encoding="utf-8"?>
<!-- Generator: Adobe Illustrator 27.9.0, SVG Export Plug-In . SVG Version: 6.00 Build 0)  -->
<svg version="1.1" id="a" xmlns="http://www.w3.org/2000/svg" xmlns:xlink="http://www.w3.org/1999/xlink" x="0px" y="0px"
	 width="200px" height="200px" viewBox="0 0 200 200" style="enable-background:new 0 0 200 200;" xml:space="preserve">
<style type="text/css">
	.st0{fill:url(#SVGID_1_);}
	.st1{fill:#90AB4F;}
	.st2{fill:#FFFFFF;}
</style>
<g id="b">
	<g id="c">
		
			<radialGradient id="SVGID_1_" cx="100" cy="101.9" r="93.45" gradientTransform="matrix(1 0 0 -1 0 202)" gradientUnits="userSpaceOnUse">
			<stop  offset="0" style="stop-color:#496D24"/>
			<stop  offset="0.9081" style="stop-color:#3F6519"/>
			<stop  offset="1" style="stop-color:#355C0C"/>
		</radialGradient>
		<ellipse class="st0" cx="100" cy="100.1" rx="93.5" ry="93.4"/>
		<path class="st1" d="M100,12.1c48.5,0,88,39.4,88,87.9s-39.5,88-88,88s-88-39.4-88-87.9S51.5,12.1,100,12.1 M100,1.1
			C45.3,1.1,1,45.4,1,100s44.3,99,99,99s99-44.3,99-98.9S154.7,1.1,100,1.1L100,1.1z"/>
	</g>
</g>
<g id="d">
	<path class="st2" d="M105.2,143.5l-0.2-9.4c11.9,9.3,54.6,9.6,54.6,9.6l-32.8-25l21.6,2.8L118.3,94l21.4,5l-28.3-31l16.7,3.3
		L108.8,49l9.8,2L100,29.8L81.5,51l10.3-2.1L72,71.3L88.7,68L60.4,99l21.4-5l-30.1,27.5l21.5-2.8l-32.8,25c0,0,35,1,53.3-9.2
		c-0.2,4.8-0.3,8-0.3,8c0,11.5-1.9,13.2-6.3,16.9l-4.6,2.8H116l-6-3.5C105.6,156,105.3,151,105.2,143.5L105.2,143.5L105.2,143.5z"/>
</g>
</svg>
