<?xml version="1.0" encoding="utf-8"?>
<!-- Generator: Adobe Illustrator 27.9.0, SVG Export Plug-In . SVG Version: 6.00 Build 0)  -->
<svg version="1.1" id="a" xmlns="http://www.w3.org/2000/svg" xmlns:xlink="http://www.w3.org/1999/xlink" x="0px" y="0px"
	 width="200px" height="200px" viewBox="0 0 200 200" style="enable-background:new 0 0 200 200;" xml:space="preserve">
<style type="text/css">
	.st0{fill:url(#SVGID_1_);}
	.st1{fill:#BCBBAC;}
	.st2{fill:#FFFFFF;}
</style>
<g id="b">
	
		<radialGradient id="SVGID_1_" cx="100" cy="101.9" r="93.45" gradientTransform="matrix(1 0 0 -1 0 202)" gradientUnits="userSpaceOnUse">
		<stop  offset="0" style="stop-color:#7B7B7D"/>
		<stop  offset="0.5567" style="stop-color:#78787A"/>
		<stop  offset="1" style="stop-color:#6F6F70"/>
	</radialGradient>
	<ellipse class="st0" cx="100" cy="100.1" rx="93.5" ry="93.4"/>
	<path class="st1" d="M100,12.1c48.5,0,88,39.4,88,87.9s-39.5,88-88,88s-88-39.4-88-87.9S51.5,12.1,100,12.1 M100,1.1
		C45.3,1.1,1,45.4,1,100s44.3,99,99,99s99-44.3,99-98.9S154.7,1.1,100,1.1L100,1.1z"/>
</g>
<path id="c" class="st2" d="M48.5,139c-1-0.1-2.4-0.9-3-1.7c-4.9-6.2-7.2-16-7.2-22.3c0-6.2,11.9-30.1,16.5-43.4
	c1-2.8,2.9-5.1,5.5-6.5c10.3-5.8,23.9-15,32-14.2c11.6,7,14.2,22,22.9,42.4c1,2.4,2.5,4.7,4.4,6.6c3,3.1,5.3,5.9,7,9.2
	c-1.1,11.2-4.8,17.5-8.6,29.8c-14.9,1-29.8,1.1-40.8,0.8c-1.3,0-2.4-1.2-2.4-2.5c0.2-8.7,0.3-14.1,0.3-17c0-1.9-1.7-3.4-3.6-3.1
	c-5.9,1.1-12.9,6.4-19.3,11.9c-0.8,0.6-1,1.7-0.5,2.6c2,3.4,7.2,7.2,5.6,7.6C54.6,140.1,52.3,139.5,48.5,139L48.5,139z M116.1,74.5
	c0.4,5.6,4.4,14.2,7.7,19.5c0.4,0.6,0.9,1.2,1.4,1.7c4.5,3.8,7.6,3.4,9.9,5.5c0.8,0.7,1.2,1.8,1.1,2.9c-0.9,8.1-5.2,23.4-7,33.2
	c-0.3,1.4,0.8,2.7,2.3,2.8c4.2,0.1,9.5,0.2,14,0c1.4-0.1,2.6-0.6,3.6-1.6c7-7.2,12.7-18,16.8-25.9c0.3-0.6,0.5-1.2,0.5-1.9
	c0.4-5.2,0.6-9.3-1.8-14.3c-5.5-11.6-12.2-19.1-17.7-25.8c-1.5-1.9-3.9-2.9-6.3-2.7c-9.3,0.7-17.9,2.2-22.8,4
	C116.7,72.4,116,73.4,116.1,74.5L116.1,74.5z"/>
</svg>
