<?xml version="1.0" encoding="utf-8"?>
<!-- Generator: Adobe Illustrator 27.9.0, SVG Export Plug-In . SVG Version: 6.00 Build 0)  -->
<svg version="1.1" id="a" xmlns="http://www.w3.org/2000/svg" xmlns:xlink="http://www.w3.org/1999/xlink" x="0px" y="0px"
	 width="200px" height="200px" viewBox="0 0 200 200" style="enable-background:new 0 0 200 200;" xml:space="preserve">
<style type="text/css">
	.st0{fill:url(#SVGID_1_);}
	.st1{fill:#BCCE15;}
	.st2{fill:#FFFFFF;}
</style>
<g id="b">
	
		<radialGradient id="SVGID_1_" cx="100" cy="-488.1" r="93.45" gradientTransform="matrix(1 0 0 -1 0 -388)" gradientUnits="userSpaceOnUse">
		<stop  offset="0" style="stop-color:#759E00"/>
		<stop  offset="1" style="stop-color:#668A00"/>
	</radialGradient>
	<ellipse class="st0" cx="100" cy="100.1" rx="93.5" ry="93.4"/>
	<path class="st1" d="M100,12.1c48.5,0,88,39.4,88,87.9s-39.5,88-88,88s-88-39.4-88-87.9S51.5,12.1,100,12.1 M100,1.1
		C45.3,1.1,1,45.4,1,100s44.3,99,99,99s99-44.3,99-98.9S154.7,1.1,100,1.1L100,1.1z"/>
</g>
<path class="st2" d="M160.8,99.8c0-41.4-47.6-31.7-73.6-31.9c3.9-4.8-0.7-10.3-4.7-13.4c13.8,0.6,11.7-8.3-0.9-8.5
	c-10.2,1-17.2-5.8-25.7,1.8c-12.2-6-34.4,8.9-7,7.6c0.8,11.3-1,11.2-6.6,20.1c-2.5,4.1,0.5,10.1,7,11.5c4.2,0.9,9.6-4.2,13.1-6.5
	c9.8,1.2,16.6-10.3,17-10.5c0.8,4-0.8,11.3-11.4,16.3c-7.5,6.3-2.4,21.6-0.6,30c3.3,8,10.5,13.7,18.9,15.2c0.4,7.7,2.4,20-3.6,26.3
	c-1.5,3,8.2,1.1,9.1,1.6c3.5-4.3,2-22.2,2.6-27.4h5.7c0.4,7.6,2.4,19.7-3.5,25.9c-1.5,3,8.2,1.1,9.1,1.6c3.5-4.3,2.1-22.1,2.7-27.4
	l-4.2-0.1c4-0.1,25.8,0.3,29.4-0.4c-0.1,5.4,2.2,17.8-1.4,22.4c-0.3,1-4.2,5-1.4,5.3h8.2l1-2c1.9-2.9,1.9-24.9,2.4-28.5
	c2.4-1.1,4.6-2.6,6.6-4.2c-0.3,5.8,2.7,24.6-1.2,29.4c-0.3,1-4.2,5.1-1.4,5.3h8.2l1-2C158.6,146.1,160.8,141.2,160.8,99.8
	L160.8,99.8z"/>
</svg>
